@startuml

interface  State{
    //定义相关的操作
}
note right:抽象状态角色，定义一个接口，封装与Context的一个特定接口相关的行为

class ConcreteStateA
ConcreteStateA ..|> State
note right:具体的状态角色，每个子类实现一个与Context一个状态相关的行为
class ConcreteStateB
ConcreteStateB ..|> State

class Context{
    state:State
}
note right:环境角色，用于维护State的实现类，此实例定义当前状态
State --o Context
@enduml