@startuml
title:桥接模式：将实现与抽象放在两个不同的类层次，使两个层可以独立改变
interface Brand{
    call():void
}

class Vivo
class XiaoMi
abstract class Phone{
    brand:Brand
}

class FoldedPhone
class UpRightPhone
class Client

FoldedPhone --|> Phone
UpRightPhone --|> Phone
Vivo ..|> Brand
XiaoMi ..|> Brand
Brand --o Phone
Client ..> Phone
Client ..> Brand


@enduml